# xmcd
#
# Track frame offsets:
#	150
#	10532
#	29288
#	47570
#	68518
#	87948
#	108526
#	129083
#	143845
#	162368
#	166416
#	183940
#	210492
#	237128
#	256051
#	271463
#	295352
#	313430
#	331990
#
# Disc length: 4698 seconds
#
# Revision: 0
# Processed by: cddbd v1.5.1PL0 Copyright (c) Steve Scherf et al.
# Submitted via: dBpowerAMP V4.0
#
DISCID=03125813
DTITLE=R. Kelly - TP-2.Com
DYEAR=1900
DGENRE=Blues
TTITLE0=TP-2
TTITLE1=Strip For You
TTITLE2=R&B Thug
TTITLE3=The Greatest Sex
TTITLE4=I Don't Mean It
TTITLE5=Just Like That
TTITLE6=Like A Real Freak
TTITLE7=Fiesta
TTITLE8=Don't You Say No
TTITLE9=The Real R. Kelly
TTITLE10=One Me
TTITLE11=I Wish
TTITLE12=A Woman`s Threat
TTITLE13=I Decided
TTITLE14=I Mean (I Don't Mean It
TTITLE15=I Wish (Remix)
TTITLE16=All I Really Want
TTITLE17=Feelin' On Your Booty
TTITLE18=The Storm Is Over Now
EXTD=
EXTT0=
EXTT1=
EXTT2=
EXTT3=
EXTT4=
EXTT5=
EXTT6=
EXTT7=
EXTT8=
EXTT9=
EXTT10=
EXTT11=
EXTT12=
EXTT13=
EXTT14=
EXTT15=
EXTT16=
EXTT17=
EXTT18=
PLAYORDER=
